M48
; DRILL file {KiCad (6.0.0)} date Sun Aug  7 09:38:12 2022
; FORMAT={-:-/ absolute / metric / decimal}
; #@! TF.CreationDate,2022-08-07T09:38:12+08:00
; #@! TF.GenerationSoftware,Kicad,Pcbnew,(6.0.0)
; #@! TF.FileFunction,Plated,1,2,PTH
FMAT,2
METRIC
; #@! TA.AperFunction,Plated,PTH,ViaDrill
T1C0.400
; #@! TA.AperFunction,Plated,PTH,ComponentDrill
T2C0.600
; #@! TA.AperFunction,Plated,PTH,ViaDrill
T3C0.600
; #@! TA.AperFunction,Plated,PTH,ComponentDrill
T4C0.650
; #@! TA.AperFunction,Plated,PTH,ComponentDrill
T5C1.000
; #@! TA.AperFunction,Plated,PTH,ComponentDrill
T6C1.000
%
G90
G05
T1
X114.098Y-100.097
X114.1Y-95.8
X117.7Y-113.1
X118.1Y-99.5
X118.174Y-97.6
X119.1Y-111.9
X119.3Y-72.5
X119.4Y-88.0
X119.5Y-92.1
X121.8Y-88.0
X122.0Y-92.1
X122.1Y-72.5
X122.1Y-111.9
X125.9Y-115.6
X126.3Y-104.8
X126.4Y-95.8
X127.4Y-106.1
X127.8Y-74.1
X127.8Y-75.9
X127.8Y-97.8
X127.8Y-99.8
X127.9Y-86.9
X129.0Y-97.8
X129.0Y-99.612
X130.7Y-70.575
X130.7Y-72.025
X130.9Y-86.9
X132.1Y-100.4
X132.4Y-72.1
X132.9Y-70.1
X133.4Y-100.6
X133.7Y-114.0
X133.7Y-115.0
X134.5Y-98.8
X134.5Y-102.941
X134.5Y-104.39
X134.8Y-81.5
X134.8Y-83.7
X136.4Y-113.9
X136.4Y-114.9
X139.4Y-97.3
X139.5Y-73.2
X139.5Y-99.0
X141.2Y-111.0
X144.3Y-74.8
T3
X115.3Y-95.7
X123.2Y-93.8
X127.6Y-108.9
X139.3Y-112.4
T4
X130.7Y-112.852
X136.49Y-112.852
T5
X114.395Y-73.06
X114.395Y-75.6
X114.395Y-78.14
X126.23Y-70.0
X128.77Y-70.0
T6
X114.125Y-83.9
X114.125Y-86.44
X114.125Y-88.98
X114.125Y-91.52
X114.8Y-104.325
X114.8Y-106.865
X114.8Y-109.405
X114.8Y-111.945
X114.8Y-114.485
X118.125Y-115.5
X120.665Y-115.5
T2
G00X129.28Y-111.803
M15
G01X129.28Y-112.902
M16
G05
G00X129.28Y-116.133
M15
G01X129.28Y-116.932
M16
G05
G00X137.92Y-111.803
M15
G01X137.92Y-112.902
M16
G05
G00X137.92Y-116.133
M15
G01X137.92Y-116.932
M16
G05
T0
M30
